<?xml version="1.0" encoding="UTF-8"?>
<svg version="1.1" xmlns="http://www.w3.org/2000/svg" width="433" height="458">
<path d="M0 0 C1.22074219 -0.020625 2.44148437 -0.04125 3.69921875 -0.0625 C17.68058779 -0.12231334 30.22239251 3.22842689 40.6875 12.9375 C49.42520946 22.56030969 54.29520307 36.07956383 59.9375 47.6875 C60.3820755 48.59993469 60.826651 49.51236938 61.28469849 50.45245361 C67.08551549 62.36082348 72.77203596 74.30962402 78.29125977 86.35131836 C83.30915971 97.23754273 88.59393888 107.98964546 93.875 118.75 C100.31479303 131.8719507 106.66604647 145.01690532 112.765625 158.30078125 C116.69353531 166.8383894 120.76258212 175.30035416 124.875 183.75 C129.87232843 194.02550511 134.80184056 204.32899958 139.625 214.6875 C140.16189453 215.83605469 140.69878906 216.98460937 141.25195312 218.16796875 C147.63607415 231.94119502 151.61529811 242.69141372 146.55859375 257.66796875 C141.84375104 269.12957383 133.75691361 277.42505836 122.375 282.25 C115.85470541 284.42343153 109.43210801 283.25293172 103.375 280.25 C98.62268383 276.83619148 95.92549493 273.44036199 93.3125 268.1875 C92.94092773 267.4641748 92.56935547 266.74084961 92.18652344 265.99560547 C87.76121234 257.25427234 83.71127315 248.32676224 79.6184845 239.42660522 C76.0750443 231.72472065 72.43952698 224.07072016 68.75 216.4375 C68.20529053 215.31013428 67.66058105 214.18276855 67.09936523 213.02124023 C66.02767876 210.80436276 64.95566534 208.5876433 63.88330078 206.37109375 C61.64114271 201.73144519 59.41156108 197.08584692 57.1875 192.4375 C56.75646973 191.53668701 56.32543945 190.63587402 55.88134766 189.70776367 C52.97844787 183.63081411 50.09328484 177.5455909 47.21484375 171.45703125 C39.40792714 154.94510418 31.58840218 138.44152131 23.59155273 122.02050781 C20.73031089 116.1417729 17.89696249 110.25305662 15.140625 104.32421875 C14.63909912 103.25163818 14.13757324 102.17905762 13.62084961 101.07397461 C12.69605515 99.09065201 11.77956643 97.10342522 10.87329102 95.11157227 C10.46780029 94.24459717 10.06230957 93.37762207 9.64453125 92.484375 C9.30010986 91.73381836 8.95568848 90.98326172 8.60083008 90.20996094 C7.13849527 87.87185621 5.73288999 86.66845508 3.375 85.25 C-0.14311407 84.84697098 -0.14311407 84.84697098 -3.625 86.25 C-8.58481908 92.01950485 -11.51918219 99.94646089 -14.75 106.75 C-15.59824341 108.52274292 -15.59824341 108.52274292 -16.46362305 110.33129883 C-20.68175583 119.16583635 -24.76456277 128.06063165 -28.81762695 136.97192383 C-31.54460806 142.94959772 -34.36533151 148.85921269 -37.34130859 154.71630859 C-40.67329839 161.29078213 -43.88605145 167.92271081 -47.09359741 174.5585022 C-47.73643844 175.8881013 -48.38000658 177.21734913 -49.02432251 178.54623413 C-49.93349767 180.42182958 -50.8401693 182.29861393 -51.74609375 184.17578125 C-52.2764624 185.27317627 -52.80683105 186.37057129 -53.35327148 187.5012207 C-55.42218826 191.97308362 -55.97721288 195.31901965 -55.625 200.25 C-54.20969005 202.37296492 -53.28310961 203.03952366 -50.87258911 203.81045532 C-48.18060943 204.33690624 -45.6575812 204.39005115 -42.91357422 204.40771484 C-41.76492889 204.41797699 -40.61628357 204.42823914 -39.43283081 204.43881226 C-37.57502487 204.44976425 -37.57502487 204.44976425 -35.6796875 204.4609375 C-33.723116 204.48182397 -31.76654452 204.5027281 -29.80998421 204.52463722 C-24.99578825 204.57761158 -20.18158551 204.62186074 -15.3671875 204.65136719 C-12.66596462 204.66836278 -9.96502036 204.69315332 -7.26394653 204.72622681 C-4.72636209 204.75697059 -2.18861014 204.77656355 0.34915161 204.78329468 C12.91898469 204.96164785 24.17598354 207.93174517 33.26171875 217.16796875 C41.21975391 227.21072849 43.29525378 237.66881613 42.375 250.25 C40.1036382 261.7025893 34.07892237 269.88428418 24.78125 276.74609375 C18.26217895 280.82051316 11.06153835 283.36430415 3.36764526 283.39044189 C2.35848557 283.39615204 1.34932587 283.40186218 0.30958557 283.40774536 C-0.79176224 283.40886322 -1.89311005 283.40998108 -3.02783203 283.41113281 C-4.19253525 283.41609772 -5.35723846 283.42106262 -6.55723572 283.42617798 C-10.4157673 283.44079873 -14.27425775 283.4476023 -18.1328125 283.453125 C-20.13775446 283.45742343 -22.14269641 283.46172239 -24.1476382 283.4660995 C-29.73681531 283.47790701 -35.32598248 283.48544624 -40.91517079 283.4888947 C-48.12407799 283.49336778 -55.33279485 283.51088224 -62.54164422 283.5398953 C-68.12570296 283.56158221 -73.70970845 283.57160278 -79.29380882 283.57293582 C-82.62307035 283.57397931 -85.95201121 283.5812557 -89.28125381 283.59775543 C-93.00291443 283.61487992 -96.72411635 283.61291944 -100.44580078 283.60644531 C-101.5350032 283.6156601 -102.62420563 283.62487488 -103.74641418 283.6343689 C-115.12550497 283.57260765 -123.97165698 280.7689552 -132.625 273.25 C-141.08368285 264.2414219 -145.52962887 254.28003519 -145.9375 241.9375 C-145.53760533 229.78931861 -140.80901557 219.78083211 -135.44900513 209.1321106 C-133.39233442 205.04604209 -131.37319964 200.94140501 -129.34765625 196.83984375 C-128.7391407 195.61194374 -128.7391407 195.61194374 -128.11833191 194.35923767 C-124.51194006 187.06767081 -121.0756409 179.70783923 -117.6875 172.3125 C-113.55265322 163.31425539 -109.25561784 154.42608741 -104.77856445 145.59375 C-101.15412525 138.40357225 -97.74304271 131.12586245 -94.375 123.8125 C-89.68778893 113.63485712 -84.89575281 103.51637142 -80 93.4375 C-79.68132965 92.7813974 -79.3626593 92.1252948 -79.03433228 91.4493103 C-77.77480459 88.85660746 -76.51510769 86.26398706 -75.25489807 83.6716156 C-72.49987194 78.00090867 -69.77658621 72.31538589 -67.0625 66.625 C-63.10904649 58.34829717 -59.15322408 50.07273402 -55.17800903 41.80645752 C-54.56933852 40.53963661 -53.96161889 39.2723583 -53.35494995 38.00457764 C-45.36993387 21.32201144 -38.98132784 8.98112696 -20.984375 2.01171875 C-14.07684866 -0.21836012 -7.19112583 0.02980778 0 0 Z " fill="#55CCC5" transform="translate(221.625,83.75)"/>
<path d="M0 0 C1.29615234 -0.01224609 2.59230469 -0.02449219 3.92773438 -0.03710938 C5.16201172 -0.03904297 6.39628906 -0.04097656 7.66796875 -0.04296875 C8.79871826 -0.04707764 9.92946777 -0.05118652 11.09448242 -0.05541992 C13.8125 0.1875 13.8125 0.1875 15.8125 2.1875 C14.85472656 2.20208252 13.89695312 2.21666504 12.91015625 2.23168945 C9.32401989 2.29008363 5.73848474 2.36730984 2.15283203 2.44995117 C0.60703357 2.48300862 -0.93888004 2.51109903 -2.48486328 2.53393555 C-16.80843726 2.75123961 -26.89708435 5.1181621 -37.53125 15.46875 C-41.01362222 19.2539372 -43.38653781 22.35371749 -45.1875 27.1875 C-46.20978798 29.30114947 -47.25363618 31.40443463 -48.3125 33.5 C-48.61889404 34.10900146 -48.92528809 34.71800293 -49.2409668 35.34545898 C-50.53561929 37.91873213 -51.83478706 40.48971412 -53.13427734 43.06054688 C-57.35170946 51.41215791 -61.47173956 59.80531066 -65.5 68.25 C-65.92063721 69.13051025 -66.34127441 70.01102051 -66.7746582 70.91821289 C-69.0161202 75.63605979 -71.16249313 80.37288189 -73.1875 85.1875 C-76.41766262 92.67791646 -80.01581531 99.94832761 -83.734375 107.20703125 C-86.25072946 112.15876836 -88.57196592 117.00918835 -90.40625 122.25 C-91.64878442 125.33148537 -93.32476927 128.15038564 -95.00390625 131.01171875 C-96.23020136 133.16454632 -96.23020136 133.16454632 -97.1015625 135.47265625 C-98.53817972 139.06419929 -100.26181651 142.48387561 -102 145.9375 C-102.35384766 146.64326172 -102.70769531 147.34902344 -103.07226562 148.07617188 C-105.64876803 153.18693895 -108.3236729 158.23087618 -111.1875 163.1875 C-112.02872809 160.81525014 -112.31935215 159.57531143 -111.49755859 157.15820312 C-111.11422363 156.43568359 -110.73088867 155.71316406 -110.3359375 154.96875 C-109.6877002 153.7168689 -109.6877002 153.7168689 -109.02636719 152.43969727 C-108.54329102 151.53147217 -108.06021484 150.62324707 -107.5625 149.6875 C-106.53018067 147.68809032 -105.50170641 145.68669191 -104.4765625 143.68359375 C-103.93418945 142.62382324 -103.39181641 141.56405273 -102.83300781 140.47216797 C-100.07079986 134.95840747 -97.50825829 129.35493374 -94.9375 123.75 C-90.2520113 113.57159238 -85.45823207 103.45382873 -80.5625 93.375 C-80.24382965 92.7188974 -79.9251593 92.0627948 -79.59683228 91.3868103 C-78.33730459 88.79410746 -77.07760769 86.20148706 -75.81739807 83.6091156 C-73.06237194 77.93840867 -70.33908621 72.25288589 -67.625 66.5625 C-63.67154649 58.28579717 -59.71572408 50.01023402 -55.74050903 41.74395752 C-55.13183852 40.47713661 -54.52411889 39.2098583 -53.91744995 37.94207764 C-45.93243387 21.25951144 -39.54382784 8.91862696 -21.546875 1.94921875 C-14.46177884 -0.33818812 -7.37344277 0.00369967 0 0 Z " fill="#67CAA1" transform="translate(222.1875,83.8125)"/>
<path d="M0 0 C0.66 0 1.32 0 2 0 C1.38402794 4.5460473 -0.46595857 8.23434722 -2.5625 12.25 C-3.28687574 13.66709111 -4.00947185 15.08509305 -4.73046875 16.50390625 C-5.10349121 17.23754395 -5.47651367 17.97118164 -5.86083984 18.72705078 C-7.76079596 22.51800479 -9.57208439 26.34965594 -11.375 30.1875 C-11.70830322 30.89358398 -12.04160645 31.59966797 -12.38500977 32.32714844 C-13.66217516 35.05133075 -14.90507695 37.75994363 -16.01171875 40.55859375 C-17.30627119 43.75659879 -18.86935492 46.80529773 -20.4375 49.875 C-27.49479902 63.74571729 -31.51721796 75.53721545 -27 91 C-25.79462999 93.75578869 -24.42239348 96.34486551 -23 99 C-23 99.66 -23 100.32 -23 101 C-22.01 101.33 -21.02 101.66 -20 102 C-19.2265625 103.3303125 -19.2265625 103.3303125 -18.4375 104.6875 C-14.82284843 110.50176513 -7.31485134 113.87666098 -1 116 C1.73723988 116.29732241 4.40043188 116.50882699 7.14453125 116.6328125 C7.91431808 116.67437469 8.68410492 116.71593689 9.47721863 116.75875854 C11.92197002 116.88890732 14.36712932 117.00712183 16.8125 117.125 C18.47595263 117.21145097 20.13936491 117.29868208 21.80273438 117.38671875 C25.8680779 117.60018194 29.93382929 117.80294833 34 118 C34 118.33 34 118.66 34 119 C29.48343092 119.07490483 24.96720377 119.12895323 20.45019531 119.16479492 C18.91790457 119.17975744 17.38565571 119.20013497 15.85351562 119.22631836 C2.2160972 119.45331194 -8.34649795 118.25690851 -19 109 C-27.45868285 99.9914219 -31.90462887 90.03003519 -32.3125 77.6875 C-31.87679644 64.51824032 -26.28672777 53.71046691 -20.5 42.1875 C-19.68705437 40.54725446 -18.87537673 38.90637989 -18.06494141 37.26489258 C-16.46062796 34.01691415 -14.85162577 30.7713304 -13.23925781 27.52734375 C-10.22213163 21.44374062 -7.29093842 15.32021975 -4.375 9.1875 C-3.92060547 8.23447998 -3.46621094 7.28145996 -2.99804688 6.29956055 C-1.99740137 4.20031958 -0.99794349 2.10052637 0 0 Z " fill="#65C59B" transform="translate(108,248)"/>
<path d="M0 0 C3.25295803 2.16863869 3.62795048 2.95592435 5 6.4375 C6.29876176 9.77463189 6.29876176 9.77463189 8.5625 12.47265625 C10.49772712 14.52883506 10.47004082 16.23028633 11 19 C12.13787712 21.6219413 13.31292883 24.18284376 14.5625 26.75 C15.28795479 28.26422981 16.01320927 29.7785556 16.73828125 31.29296875 C17.11162598 32.06817871 17.4849707 32.84338867 17.86962891 33.64208984 C20.01514126 38.1175452 22.10726547 42.61822895 24.20922852 47.11425781 C26.09643405 51.13304097 28.05031108 55.11190161 30.04492188 59.07836914 C31.4589795 61.92347332 32.79542462 64.80211259 34.125 67.6875 C34.62257813 68.76386719 35.12015625 69.84023438 35.6328125 70.94921875 C36.4921757 72.86682635 37.30684266 74.8057461 38.0546875 76.76953125 C38.89845398 79.14853583 38.89845398 79.14853583 41 81 C41.682794 82.99455178 42.34708201 84.9954695 43 87 C43.9429876 89.01731052 44.92309055 91.01764261 45.9375 93 C46.44152344 93.99 46.94554687 94.98 47.46484375 96 C47.97144531 96.99 48.47804688 97.98 49 99 C50.53330618 102.00042648 51.93430424 104.80291273 53 108 C53.99 108 54.98 108 56 108 C56.2475 108.598125 56.495 109.19625 56.75 109.8125 C58.16370012 112.28647521 59.65055383 113.43370255 62 115 C57.21147309 114.57748292 54.27509635 112.34023223 51 109 C49.46263367 106.63812435 48.18255692 104.44041806 46.9375 101.9375 C46.56592773 101.2141748 46.19435547 100.49084961 45.81152344 99.74560547 C41.38621234 91.00427234 37.33627315 82.07676224 33.2434845 73.17660522 C29.70004436 65.47472077 26.06454971 57.82070973 22.375 50.1875 C21.8397168 49.07971191 21.30443359 47.97192383 20.75292969 46.83056641 C19.69074776 44.6334725 18.62825225 42.43653017 17.56542969 40.23974609 C15.03280671 34.99833829 12.51450559 29.75011872 10 24.5 C9.5673584 23.59918701 9.1347168 22.69837402 8.68896484 21.77026367 C7.4508304 19.18409404 6.22311142 16.59330586 5 14 C4.53078125 13.01257813 4.0615625 12.02515625 3.578125 11.0078125 C3.11921875 10.02554687 2.6603125 9.04328125 2.1875 8.03125 C1.76855469 7.13986328 1.34960938 6.24847656 0.91796875 5.33007812 C0 3 0 3 0 0 Z " fill="#4DBFD1" transform="translate(268,250)"/>
<path d="M0 0 C2.88323088 2.50694843 4.26012242 5.22507947 5.8984375 8.65234375 C6.45442627 9.80863281 7.01041504 10.96492188 7.58325195 12.15625 C8.18085313 13.41649989 8.77809399 14.6769207 9.375 15.9375 C9.99211954 17.23061774 10.60955551 18.52358452 11.22729492 19.81640625 C12.83695917 23.1915665 14.43673159 26.57131585 16.03302002 29.95281982 C16.98996212 31.97874894 17.94952744 34.00341708 18.90966797 36.02783203 C20.43094285 39.2378247 21.94489165 42.45117032 23.45269775 45.66751099 C24.29887588 47.47096303 25.14916097 49.27248625 25.99951172 51.07397461 C26.51143066 52.17362549 27.02334961 53.27327637 27.55078125 54.40625 C28.00106689 55.36853516 28.45135254 56.33082031 28.9152832 57.32226562 C29.95654091 59.8927168 30.55933428 62.26855476 31 65 C27.63920695 63.31960347 26.74765121 59.54858388 25.25 56.25 C24.89873047 55.4880835 24.54746094 54.72616699 24.18554688 53.94116211 C23.46699614 52.38163967 22.75085599 50.82100433 22.03710938 49.25927734 C21.08425058 47.18353458 20.11670327 45.11568435 19.140625 43.05078125 C18.59921875 41.89964844 18.0578125 40.74851562 17.5 39.5625 C16.77296875 38.01755859 16.77296875 38.01755859 16.03125 36.44140625 C15 34 15 34 15 32 C14.34 32 13.68 32 13 32 C12.81824219 31.41992188 12.63648438 30.83984375 12.44921875 30.2421875 C10.95464966 25.59752665 9.22944094 21.35271803 7 17 C7 16.34 7 15.68 7 15 C6.34 15 5.68 15 5 15 C4.16013916 13.06532058 3.32831973 11.12714871 2.5 9.1875 C2.0359375 8.10855469 1.571875 7.02960938 1.09375 5.91796875 C0 3 0 3 0 0 Z " fill="#50BCD2" transform="translate(337,251)"/>
<path d="M0 0 C0.66 0 1.32 0 2 0 C5.11902769 6.47120056 8.21865667 12.95147578 11.3046875 19.43847656 C12.46643058 21.87907393 13.63027492 24.31856639 14.796875 26.75683594 C16.31020896 29.9222074 17.81266405 33.09256104 19.3085022 36.26623535 C19.89249132 37.50116259 20.4798544 38.73450017 21.07064819 39.96618652 C21.90382814 41.70490981 22.72366115 43.4500095 23.54296875 45.1953125 C24.2548938 46.69602295 24.2548938 46.69602295 24.98120117 48.22705078 C26.01373456 51.03738249 26.21299048 53.03574134 26 56 C23.02067065 52.51069535 21.45260749 48.60283265 19.8125 44.375 C19.53986328 43.694375 19.26722656 43.01375 18.98632812 42.3125 C17 37.27449483 17 37.27449483 17 35 C16.34 35 15.68 35 15 35 C14.79246094 34.45214844 14.58492188 33.90429688 14.37109375 33.33984375 C12.25471406 27.8939295 9.94536917 22.5545297 7.5 17.25 C7.21568115 16.62472412 6.9313623 15.99944824 6.63842773 15.35522461 C5.21419948 12.29867094 3.70486333 9.57392241 1.78125 6.796875 C0 4 0 4 0 0 Z " fill="#4FC3D2" transform="translate(310,195)"/>
<path d="M0 0 C0.6796875 1.73046875 0.6796875 1.73046875 1 4 C-3.90289204 13.27435173 -12.97295335 19.76003295 -22.625 23.2890625 C-25.76795782 24.22988211 -28.73409302 24.71600809 -32 25 C-29.05006452 22.55203489 -26.46316094 21.36679671 -22.8125 20.25 C-14.77737432 17.44629973 -9.10996511 12.74515394 -4 6 C-3.34 6 -2.68 6 -2 6 C-1.34 4.02 -0.68 2.04 0 0 Z " fill="#53C4D0" transform="translate(259,342)"/>
<path d="M0 0 C7.11878485 0.44492405 12.36326721 6.09629782 16.875 11.125 C19.0147793 13.603163 20.82593578 15.92271589 22 19 C21.67 19.99 21.34 20.98 21 22 C17 15.25 17 15.25 17 13 C16.34 13 15.68 13 15 13 C13.89735099 11.86289321 12.79701254 10.72347394 11.70703125 9.57421875 C8.74285323 6.84066327 5.35289218 4.69683271 2.01171875 2.453125 C1.34785156 1.97359375 0.68398437 1.4940625 0 1 C0 0.67 0 0.34 0 0 Z " fill="#5FC7B9" transform="translate(248,89)"/>
<path d="M0 0 C6.89716565 -0.83241654 6.89716565 -0.83241654 9.83203125 1.3828125 C12.75295741 4.66618935 14.72609664 7.48059464 15 12 C14.34 12 13.68 12 13 12 C12.26674971 10.73374448 11.58814499 9.43561822 10.9375 8.125 C9.37244646 5.45686656 8.55319064 4.23204305 5.671875 3.0234375 C3.44207871 2.55363765 1.26928995 2.19775947 -1 2 C-0.67 1.34 -0.34 0.68 0 0 Z " fill="#59C9B7" transform="translate(219,166)"/>
<path d="M0 0 C0.66 0 1.32 0 2 0 C3.50626117 3.12202006 5.00393243 6.24808399 6.5 9.375 C6.92925781 10.26445312 7.35851562 11.15390625 7.80078125 12.0703125 C8.20683594 12.92109375 8.61289062 13.771875 9.03125 14.6484375 C9.40830078 15.43395996 9.78535156 16.21948242 10.17382812 17.02880859 C11 19 11 19 11 21 C10.34 21 9.68 21 9 21 C7.68302963 18.25206182 6.37129631 15.50182815 5.0625 12.75 C4.68931641 11.97269531 4.31613281 11.19539062 3.93164062 10.39453125 C3.57392578 9.64042969 3.21621094 8.88632813 2.84765625 8.109375 C2.3527771 7.07248535 2.3527771 7.07248535 1.84790039 6.01464844 C1.01082472 4.02572001 0.46416026 2.10419318 0 0 Z " fill="#53C4CD" transform="translate(297,168)"/>
<path d="M0 0 C0.66 0 1.32 0 2 0 C1.44380331 4.6889493 0.11817327 8.19924267 -2.0625 12.375 C-2.61035156 13.43460937 -3.15820312 14.49421875 -3.72265625 15.5859375 C-4.14417969 16.38257813 -4.56570312 17.17921875 -5 18 C-5.66 18 -6.32 18 -7 18 C-6.13403824 13.74891498 -4.15663682 10.25219114 -2.15625 6.4375 C-1.1279202 4.26966961 -0.47688783 2.34108569 0 0 Z " fill="#59C9B7" transform="translate(173,254)"/>
<path d="M0 0 C1.3058334 3.92128522 0.38030356 5.97831091 -1.40039062 9.68359375 C-1.74263672 10.36550781 -2.08488281 11.04742187 -2.4375 11.75 C-2.77587891 12.44738281 -3.11425781 13.14476562 -3.46289062 13.86328125 C-4.29806458 15.58068121 -5.14765424 17.29105738 -6 19 C-6.66 19 -7.32 19 -8 19 C-6.65023313 14.81258372 -5.13132987 10.74763548 -3.4375 6.6875 C-3.00308594 5.63949219 -2.56867188 4.59148437 -2.12109375 3.51171875 C-1 1 -1 1 0 0 Z " fill="#56C9B6" transform="translate(212,174)"/>
<path d="M0 0 C4.26823714 0.47424857 6.17492731 2.95761403 9 6 C9.598125 6.556875 10.19625 7.11375 10.8125 7.6875 C12 9 12 9 12 11 C9.00306862 10.00102287 7.97290587 9.34869747 6 7 C6 6.34 6 5.68 6 5 C5.34 5 4.68 5 4 5 C2.61767557 3.37373596 1.28062485 1.7074998 0 0 Z " fill="#52C3D0" transform="translate(246,296)"/>
<path d="M0 0 C3.32637022 2.69277589 4.58473125 6.03724749 6 10 C5.67 10.99 5.34 11.98 5 13 C4.15615325 11.58957044 3.32530504 10.17135868 2.5 8.75 C2.0359375 7.96109375 1.571875 7.1721875 1.09375 6.359375 C0 4 0 4 0 0 Z " fill="#52C3C0" transform="translate(244,199)"/>
<path d="M0 0 C0.66 0.66 1.32 1.32 2 2 C1.73441476 5.85098598 -0.56043348 8.16695501 -3 11 C-2.53199289 6.94393835 -2.12046792 3.53411321 0 0 Z " fill="#72CBA4" transform="translate(90,285)"/>
<path d="" fill="#00FFFF" transform="translate(0,0)"/>
<path d="" fill="#00FFFF" transform="translate(0,0)"/>
<path d="" fill="#00FFFF" transform="translate(0,0)"/>
<path d="" fill="#00FFFF" transform="translate(0,0)"/>
<path d="" fill="#7FFFFF" transform="translate(0,0)"/>
<path d="" fill="#00FFFF" transform="translate(0,0)"/>
<path d="" fill="#00FFFF" transform="translate(0,0)"/>
<path d="" fill="#00FFFF" transform="translate(0,0)"/>
<path d="" fill="#00FFFF" transform="translate(0,0)"/>
<path d="" fill="#00FFFF" transform="translate(0,0)"/>
<path d="" fill="#00FFFF" transform="translate(0,0)"/>
<path d="" fill="#00FFFF" transform="translate(0,0)"/>
<path d="" fill="#00FFFF" transform="translate(0,0)"/>
<path d="" fill="#00FFFF" transform="translate(0,0)"/>
<path d="" fill="#00FFFF" transform="translate(0,0)"/>
<path d="" fill="#00FFFF" transform="translate(0,0)"/>
<path d="" fill="#00FFFF" transform="translate(0,0)"/>
<path d="" fill="#00FFFF" transform="translate(0,0)"/>
<path d="" fill="#7FFFFF" transform="translate(0,0)"/>
<path d="" fill="#00FFFF" transform="translate(0,0)"/>
<path d="" fill="#00FFFF" transform="translate(0,0)"/>
<path d="" fill="#55AAFF" transform="translate(0,0)"/>
<path d="" fill="#00FFFF" transform="translate(0,0)"/>
<path d="" fill="#00FFFF" transform="translate(0,0)"/>
<path d="" fill="#00FFFF" transform="translate(0,0)"/>
<path d="" fill="#55AAFF" transform="translate(0,0)"/>
<path d="" fill="#00FFFF" transform="translate(0,0)"/>
<path d="" fill="#00FFFF" transform="translate(0,0)"/>
<path d="" fill="#00FFFF" transform="translate(0,0)"/>
<path d="" fill="#00FFFF" transform="translate(0,0)"/>
<path d="" fill="#7FFFFF" transform="translate(0,0)"/>
<path d="" fill="#00FFFF" transform="translate(0,0)"/>
<path d="" fill="#00FFFF" transform="translate(0,0)"/>
<path d="" fill="#00FFFF" transform="translate(0,0)"/>
<path d="" fill="#55AAAA" transform="translate(0,0)"/>
<path d="" fill="#55AAAA" transform="translate(0,0)"/>
<path d="" fill="#00FFFF" transform="translate(0,0)"/>
<path d="" fill="#00FFFF" transform="translate(0,0)"/>
<path d="" fill="#00FFFF" transform="translate(0,0)"/>
<path d="" fill="#55FFAA" transform="translate(0,0)"/>
<path d="" fill="#00FFFF" transform="translate(0,0)"/>
<path d="" fill="#00FFFF" transform="translate(0,0)"/>
</svg>
